<svg xmlns="http://www.w3.org/2000/svg" viewBox="0 0 1440 820" preserveAspectRatio="xMidYMid" width="1440" height="820" xmlns:xlink="http://www.w3.org/1999/xlink" style="display:block;background:rgb(255, 255, 255);width:1440px;height:820px;;animation:none"><g><g opacity="0.4" transform="matrix(100,0,0,100,1651.987548828125,-267.12860107421875)" style="transform:none;opacity:0.4;;animation:none"><path stroke-width="0" fill="#0055ff" d="M11.2896 0 C11.2896 2.3039999999999994 11.328144904628667 3.879877469680652 10.176144904628668 5.875199999999999 S7.640122530319347 8.6250803985648 5.644800000000001 9.777080398564799 S2.3040000000000003 11.750399999999999 7.195044874350529e-16 11.750399999999999 S-3.649477469680652 10.929080398564798 -5.644799999999998 9.777080398564799 S-9.024144904628665 7.870522530319349 -10.176144904628666 5.875200000000003 S-11.2896 2.3040000000000007 -11.2896 1.3825772503653958e-15 S-11.328144904628669 -3.8798774696806504 -10.17614490462867 -5.875199999999997 S-7.640122530319351 -8.625080398564794 -5.644800000000005 -9.777080398564795 S-2.3040000000000016 -11.750399999999999 -2.1585134623051587e-15 -11.750399999999999 S3.649477469680646 -10.9290803985648 5.644799999999993 -9.777080398564802 S9.024144904628663 -7.8705225303193505 10.176144904628664 -5.875200000000005 S11.2896 -2.304000000000002 11.2896 -2.7651545007307916e-15" transform="matrix(1,0,0,1,0,0)" style="fill:rgb(0, 85, 255);;animation:none"></path></g>
<g opacity="0.4" transform="matrix(100,0,0,100,1838.3851318359375,-402.5543212890625)" style="transform:none;opacity:0.4;;animation:none"><path stroke-width="0" fill="#0046ff" d="M13.547519999999999 0 C13.547519999999999 2.764799999999999 13.593773885554398 4.655852963616782 12.2113738855544 7.050239999999998 S9.168147036383216 10.350096478277756 6.773760000000001 11.732496478277756 S2.7647999999999997 14.100479999999997 8.634053849220634e-16 14.100479999999997 S-4.379372963616781 13.114896478277757 -6.773759999999997 11.732496478277758 S-10.828973885554397 9.444627036383217 -12.211373885554398 7.050240000000003 S-13.547519999999999 2.7648000000000006 -13.547519999999999 1.659092700438475e-15 S-13.5937738855544 -4.65585296361678 -12.211373885554401 -7.050239999999995 S-9.16814703638322 -10.350096478277752 -6.7737600000000056 -11.732496478277753 S-2.7648000000000015 -14.100479999999997 -2.59021615476619e-15 -14.100479999999997 S4.379372963616774 -13.114896478277759 6.7737599999999905 -11.732496478277762 S10.828973885554396 -9.444627036383219 12.211373885554396 -7.050240000000005 S13.547519999999999 -2.764800000000002 13.547519999999999 -3.31818540087695e-15" transform="matrix(1,0,0,1,0,0)" style="fill:rgb(0, 70, 255);;animation:none"></path></g>
<g opacity="0.4" transform="matrix(100,0,0,100,2285.739013671875,-727.5760498046875)" style="transform:none;opacity:0.4;;animation:none"><path stroke-width="0" fill="#0033ff" d="M18.966527999999997 0 C18.966527999999997 3.8707199999999986 19.03128343977616 6.518194149063495 17.09592343977616 9.870335999999996 S12.835405850936501 14.49013506958886 9.483264 16.42549506958886 S3.87072 19.740671999999996 1.2087675388908887e-15 19.740671999999996 S-6.1311221490634935 18.360855069588858 -9.483263999999995 16.42549506958886 S-15.160563439776153 13.222477850936507 -17.095923439776154 9.870336000000005 S-18.966527999999997 3.870720000000001 -18.966527999999997 2.3227297806138646e-15 S-19.03128343977616 -6.518194149063493 -17.09592343977616 -9.870335999999995 S-12.835405850936507 -14.490135069588854 -9.483264000000007 -16.425495069588855 S-3.870720000000002 -19.740671999999996 -3.626302616672666e-15 -19.740671999999996 S6.131122149063483 -18.36085506958886 9.483263999999986 -16.425495069588866 S15.160563439776153 -13.222477850936507 17.095923439776154 -9.870336000000007 S18.966527999999997 -3.870720000000003 18.966527999999997 -4.645459561227729e-15" transform="matrix(1,0,0,1,0,0)" style="fill:rgb(0, 51, 255);;animation:none"></path></g>
<g></g></g><!-- [ldio] generated by https://loading.io --></svg>