<svg xmlns="http://www.w3.org/2000/svg" version="1.1" xmlns:xlink="http://www.w3.org/1999/xlink" xmlns:svgjs="http://svgjs.dev/svgjs" width="1439" height="554" preserveAspectRatio="none" viewBox="0 0 1439 554"><g mask="url(&quot;#SvgjsMask1113&quot;)" fill="none"><rect width="1439" height="554" x="0" y="0" fill="rgba(45, 144, 185, 1)"></rect><path d="M0,400.579C78.499,395.042,162.552,398.236,226.105,351.827C288.454,306.297,297.82,220.357,337.492,154.127C383.553,77.231,471.612,20.679,478.016,-68.728C484.693,-161.952,433.779,-252.214,371.593,-321.987C309.869,-391.242,225.862,-445.093,133.637,-455.127C46.847,-464.569,-26.62,-400.484,-109.926,-374.374C-191.266,-348.881,-299.665,-372.099,-350.229,-303.475C-401.355,-234.088,-344.79,-136.247,-348.819,-50.153C-352.342,25.117,-389.458,96.672,-372.392,170.066C-353.224,252.499,-319.539,340.694,-247.578,385.238C-175.82,429.657,-84.184,406.517,0,400.579" fill="#206683"></path><path d="M1439 930.472C1505.223 910.181 1549.377 853.854 1608.04 817.031 1667.55 779.677 1745.024 769.499 1786.176 712.55 1830.554 651.136 1842.041 572.117 1839.745 496.382 1837.26 414.428 1827.762 325.595 1772.604 264.93 1717.7649999999999 204.61700000000002 1630.28 189.02999999999997 1549.613 177.286 1477.0529999999999 166.72199999999998 1402.999 172.798 1335.432 201.281 1272.426 227.841 1223.188 276.821 1182.7350000000001 331.945 1144.693 383.784 1132.577 446.23199999999997 1111.1770000000001 506.866 1083.991 583.895 1026.156 655.694 1040.066 736.187 1054.909 822.079 1108.7 907.8530000000001 1187.066 946.018 1264.274 983.619 1356.891 955.63 1439 930.472" fill="#53afd5"></path></g><defs><mask id="SvgjsMask1113"><rect width="1439" height="554" fill="#ffffff"></rect></mask></defs></svg>